<svg id="b4a2e5eb-dd1a-452a-9733-179ae5a80744" data-name="Capa 1" xmlns="http://www.w3.org/2000/svg" width="281.8" height="111.5" viewBox="0 0 281.8 111.5">
  <defs>
    <style>
      .a71d1257-3373-4318-baad-8adae7bbd3bc {
        fill: none;
        stroke: #070303;
        stroke-linecap: round;
        stroke-linejoin: round;
        stroke-width: 3px;
      }
    </style>
  </defs>
  <title>letering-2</title>
  <path class="a71d1257-3373-4318-baad-8adae7bbd3bc" d="M34.1,36.9c-22.3,27.9-52-21-9.7-20,3.1-.1,7.5,2.4,12.4,5.7a18,18,0,0,0,12.9,3C75.5,21.7,63.6.2,44.2,1.6a22.1,22.1,0,0,0-20,17c-2.4,10.3,5.3,15.1,13.9,15.9-29-3.8-58.3,45.6-13.6,46.6a17.7,17.7,0,0,0,13.4-5.5c6.6-7.2,3.5-16.1-3.7-18.8a7,7,0,0,0-8.5,3.4c-5.6,10.9,12.6,16.4,24.2-2.6,1.6-2.5,1.7-3.9.6-4.3a2,2,0,0,0-2.1,3.1c.9,1.2,3,1.6,6.6,1.1s1.1,5.9-1.8,11.9a.9.9,0,0,0,.9,1.3c4.6-.9,10.9-5.6,18.5-12.3a2.1,2.1,0,0,0,.6-2.6c-.9-1.9-3.8-.8-7,2.5a14.6,14.6,0,0,0-4,9.4c0,9.6,11,1,18.5-12.8,4.7,5.1,3.6,14.6-3,17.2a2.9,2.9,0,0,1-4-2.5,3,3,0,0,1,.5-1.5,2.7,2.7,0,0,1,3.8-.6c5.3,3.7,8.6-.6,11.5-6.7,6.2-.4,11.9-4.2,17.4-9.3a70.4,70.4,0,0,0,17.3-29.7.9.9,0,0,0-1.5-.9c-8.9,9.8-13.5,19.7-12.5,29.6h-.9c-7,14.6-14.1,29.2,5.3,14.4,2.2-7.6,5.1-12.6,10-9.3,2.3-.4,3.4-1.4,4-2.6-4.7,8.6-6.5,15.8-10.5,18.1a2.1,2.1,0,0,1-2.4-.3c-3.7-3.5.2-14.3,6.1-16.2a6,6,0,0,0,6.5.3c-5.3,9.3-10.6,18.7,1.4,16.9.1-5.1,2.2-9.7,5.4-14,1.1-2.8,1.3-4.7-.7-4.8,2.4.4,3,1.8,2.6,3.8,3.5-5.3,8.2-3.6,4.7,5.8-5.4,15.6.9,7.1,6.7-.4,2.3,12.4,7.5,9.6,14.6-1.8l3.7-7.9c-.8,2.9-1.6,5.8-.4,7.2a6.7,6.7,0,0,1,6-5.5c4.1,7.5-1.4,19.8-9.6,15.7-1.3-.3-1.5-1.3-1.5-2.4l2.2-5.2c-7.9,17.6-15.5,35.1-16.3,47.2a.5.5,0,0,0,1,.3c6.8-14.4,11.4-26.5,12.8-38.4V69.3c4.1,2.6,7.8,6.1,16.3-4.7,3.9-8.2,7.6-13.1,11.1-9.2a4.3,4.3,0,0,1,4-2.4c-2.2,0-2.9,1-4,2.4-3.7-4.6-8.6,3-10.2,9.2-.9,9.6,2.3,8.7,7.9,1.2a8.2,8.2,0,0,0,1.4-2.6l2.5-6.5c-2.5,8-5,16.2-.7,14.9a54.3,54.3,0,0,1,10.1-14.9,1.9,1.9,0,0,0,0-2.7l-.8-.4c-1.8-.2-2.2,2.4-.6,3a43.7,43.7,0,0,0,6.2,1.1c2.8.3.9,3.7-1.5,7.4-3.5,11.5,2.4,5.1,8.1-1.1,2.6-7.2,5.9-10.8,10.4-9.1,1.1.3,2.4-.1,3.9-1.4a4.8,4.8,0,0,1-4.6,1.4c-4.4-1.6-7.6,1.9-9.7,9.1-.6,11.2,3.4,9.1,9.6.4l2.9-5.9c-5.9,14.4-5.9,18.3,3.7,5.2a4.3,4.3,0,0,1,7.1.6,57.6,57.6,0,0,1,2.1,5.5,1.4,1.4,0,0,0,2.3.3,32.5,32.5,0,0,0,6.4-17.4c-.6,4.7.7,5,3.2,2.5a2.9,2.9,0,0,1,5,2.1c-.1,3.7-2.7,9.3-5.6,15.1,2.9-7.4,5.9-14,9.6-17.1a2.8,2.8,0,0,1,4.6,2.1c0,3.7-2.2,8.9-4.3,14,6-4.2,11.5-10.5,16.4-18.9l6.5-8.8a.8.8,0,0,0-.8-1.2h0a5.6,5.6,0,0,0-4.6,7l.7,3.1c-12.8,17.9-10.3,24.2,1.5,10.6"/>
</svg>
