<svg id="b6757fd1-c6e2-4cf6-972a-65e6bf891daa" data-name="Capa 1" xmlns="http://www.w3.org/2000/svg" width="439.5" height="212.8" viewBox="0 0 439.5 212.8">
  <defs>
    <style>
      .a81fb860-f2b7-456e-a205-1be62000f93a {
        fill: none;
        stroke: #000;
        stroke-miterlimit: 10;
        stroke-width: 2px;
      }
    </style>
  </defs>
  <title>you</title>
  <g>
    <g>
      <polygon class="a81fb860-f2b7-456e-a205-1be62000f93a" points="109.7 1.5 127.3 1.5 134.1 15.9 141.8 1.5 154.7 1.5 141.2 30.2 141.2 50.8 124.8 50.8 124.8 30.5 109.7 1.5"/>
      <g>
        <path class="a81fb860-f2b7-456e-a205-1be62000f93a" d="M177.2,1c-13.3,0-24,11.2-24,24.9s10.7,24.9,24,24.9,23.9-11.1,23.9-24.9S190.4,1,177.2,1Z"/>
        <path class="a81fb860-f2b7-456e-a205-1be62000f93a" d="M177.2,38.2c-4.9,0-8.8-5.5-8.8-12.3s3.9-12.3,8.8-12.3,8.7,5.6,8.7,12.3S182,38.2,177.2,38.2Z"/>
      </g>
      <path class="a81fb860-f2b7-456e-a205-1be62000f93a" d="M223.9,1.7V30.9a7.1,7.1,0,0,0,3.1,6,3.9,3.9,0,0,0,4.8,0,7.1,7.1,0,0,0,3.1-6V1.7h13.7V30.8a20,20,0,0,1-20,20h-.5a20,20,0,0,1-20.1-20V1.7Z"/>
      <path class="a81fb860-f2b7-456e-a205-1be62000f93a" d="M304.1,1H288.7l-15,49.8h13.2l2.2-8h12l3,8h15ZM292.6,30l4.4-9.4,3.2,9.4Z"/>
      <path class="a81fb860-f2b7-456e-a205-1be62000f93a" d="M325.5,50.8V1h27.1c8.8,0,16,7.6,16,16.9v3.2a9.7,9.7,0,0,1-9.5,10h0l9.5,19.7h-17L344.3,32h-3.8V50.8Z"/>
      <path class="a81fb860-f2b7-456e-a205-1be62000f93a" d="M340.6,13.4v6.2h9.3a3.1,3.1,0,0,0,3.1-3.1h0a3.1,3.1,0,0,0-3.1-3.1Z"/>
      <polygon class="a81fb860-f2b7-456e-a205-1be62000f93a" points="374.5 1 374.5 50.8 410.4 50.8 410.4 36.8 389.3 36.8 389.3 31.7 406.8 31.7 406.8 18.7 389.5 18.7 389.5 12.4 410.4 12.4 410.4 1 374.5 1"/>
    </g>
    <g>
      <path class="a81fb860-f2b7-456e-a205-1be62000f93a" d="M36.5,109.9c-4.9-7.5,1.5-14,14.5-7.5-10.1,29-23.8,43.1-34.6,39.1-4.4-1.6-7-6.1-7.1-10.8,0-7.7,4.2-12.2,11.4-14.5a3.4,3.4,0,0,0,2.4-4.2c-1.1-3.4-7.2-2.9-13.8,2-17.9,12.2-4.9,45.4,21.2,32a39,39,0,0,0,15.1-14.5,184.4,184.4,0,0,0,10.8-21.8c3.9,4.3,6.8,14.9,9.5,26.4a20,20,0,0,0,6.9,11.2c5,4,7.3,1.4,7.5-6.2a53.4,53.4,0,0,1,1-9.8A223.9,223.9,0,0,1,103,70.4a3.8,3.8,0,0,0-1.2-5.2c-3.1-2-7.2,1.7-10,9.3a22.8,22.8,0,0,1-1.5,3.6C82,95.5,76.5,114.9,73.5,136c-1.9-13.2-5.2-25.1-12.4-33.2C70.7,86.4,81.4,73,94.2,66.1a6.6,6.6,0,0,0,2.4-2c2.9-3.9-2.4-6.4-8.8-4.1a16.3,16.3,0,0,0-5.1,3C72.7,71.3,64,83.4,55.5,96.7,37.2,82.4,19,99,31.2,113.6A3.4,3.4,0,0,0,36.5,109.9Z"/>
      <path class="a81fb860-f2b7-456e-a205-1be62000f93a" d="M101.1,144.4a44.1,44.1,0,0,1,1.7-14.7A48,48,0,0,1,112.9,111c5.3-6.2,10.3-9.4,12.4-5.8a5.6,5.6,0,0,1,.5,4c-2.3,9.3-4.3,18.4-4.5,26.5a11.7,11.7,0,0,0,.2,3.2c.5,3.8,1.6,6.8,3.6,8.5a2.5,2.5,0,0,0,4.2-1.9l.4-14.6a20.9,20.9,0,0,1,.4-4.3c2.7-15,11.3-25.4,17-21.6a5.5,5.5,0,0,1,2,6.1c-2.5,9-4.3,17.5-3,24.6,2.6,9.7,10.3,20.4,23.1,7.8,10,6.5,21.9,8.6,29.8-6.1,7.7,16.9,21.2,14.9,28-1.4,2.8-11,5.6-21.6,9-29a5.5,5.5,0,0,1,5.1-3.2h17.2a1.1,1.1,0,0,1,.8,1.9l-18.3,19.1c-8,9.4-15.1,18.4-11.6,22.5a3.1,3.1,0,0,0,4.5.2c2.7-2.6,7.4-3.4,14.2-2.1,11.7,3.8,23,6.8,28.2-4.2,5.7,8.3,22.5,12.9,28.5,0,4.7,10.8,12.4,11.7,8.3.4,1.9-27.9,29.8-45.2,29.8-33.9-2.9,10.2-5.8,20.3-5.3,29,2.1,13,18.3,17.4,26,3,8.4,9.5,16.7,10.1,24.9,3.9-7.1,18.2-15.1,35.6-33.3,43.5-11.1-.8-22-5.4-32.8-10.7.2-23.9-44.2-22.2-60.4-2.6-5.6,6.9-6.3,16.8-.8,23.8,13.4,17.3,56.8,21.6,95-2.9,34.8,10.2,66.6,5.3,81.8-21.5a5.9,5.9,0,0,0,.5-4.5,3.1,3.1,0,0,0-2.9-2.3,3.6,3.6,0,0,0-3.4,2c-17.4,29.9-56.9,24.6-66.1,20.8,20.5-17.2,34.3-44.7,39.8-84.9,2-11.7-6.4-8.4-8.3.4-16-20.9-35.3,2.4-35.9,23.6-.9,5.8-3.9,10.1-9.1,12.6-13.3,4.8-3-19.1-3.8-36.7a7.3,7.3,0,0,0-2.7-5.4c-9.4-7.3-22.7,2.9-33.9,18.6,3.1-13,2.5-23-2.5-20.6a5.1,5.1,0,0,0-2.9,4.6c-1,15.8-2.1,31.3-10.3,37.6-13.2,11-22.1-8.3-7.2-36.8h0a3,3,0,0,0-5.4-2.4c-7.1,10.9-10.4,22.1-9.3,33.6-2.3,6.5-6.7,9.8-13.9,8.8-5.4-2.3-12.8-3.3-20.9-3.8,9.1-11.3,18.3-22.4,26.6-28.6,6.8-4.2,9.7-7.7,7.4-10.6a4.5,4.5,0,0,0-3.6-1.7l-29-.8c-7.8-.1-11.3,5.7-14.6,15.4-4,14.2-7.7,29.4-14.8,29.7-9.6-1.9-4.1-23.1-1.3-40.9-1.5-7.5-7.3-3.8-8.7,3.3-21.3-19.8-37.3,8.7-36.2,33.3-15.2,14-13.3-8-8.2-30.2-3.5-14.5-15.5-11.1-24.2-4-9-11.9-17.6-5.6-27.4,3.2,0-3.5,1.2-6.8-1.6-8.4s-5.8,0-6.6,3.1c-5.8,23.9-7.1,40.4-2,46.1a3.3,3.3,0,0,0,5.7-2.7Z"/>
      <ellipse class="a81fb860-f2b7-456e-a205-1be62000f93a" cx="185.2" cy="123.3" rx="18.9" ry="10.7" transform="translate(-3.3 241.4) rotate(-65.7)"/>
      <ellipse class="a81fb860-f2b7-456e-a205-1be62000f93a" cx="381.1" cy="122.1" rx="18.7" ry="11.3" transform="translate(113.1 419.3) rotate(-65.7)"/>
      <path class="a81fb860-f2b7-456e-a205-1be62000f93a" d="M289,177.5c2-6.8,11.9-8.7,26.5-3.8-6.4-15.5-40.3-7.3-49.6,7.8a12.2,12.2,0,0,0-1.8,8.1c3.1,18.2,45.8,23,82.4,2.3l-30.1-10.1c-3.4,7.3-14.5,7.9-21.7,5.6C290.5,186.1,287.7,181.7,289,177.5Z"/>
      <path class="a81fb860-f2b7-456e-a205-1be62000f93a" d="M296.5,179.3c2.6-1.3,8.5-1.5,11.4-.6a1,1,0,0,1,0,1.9c-4.8,1.3-8.5,1.5-11.2.6A1,1,0,0,1,296.5,179.3Z"/>
      <circle class="a81fb860-f2b7-456e-a205-1be62000f93a" cx="289.3" cy="91" r="3.4"/>
    </g>
  </g>
</svg>
